<svg width="20" height="20" viewBox="0 0 20 20" fill="none" xmlns="http://www.w3.org/2000/svg">
<path d="M11.5604 2.29509L13.1448 5.48671C13.3609 5.92193 13.937 6.35715 14.4172 6.42969L17.2859 6.91327C19.1224 7.2276 19.5545 8.55744 18.2342 9.88728L16.0016 12.148C15.6295 12.5228 15.4134 13.2602 15.5335 13.7922L16.1696 16.5849C16.6738 18.7851 15.5095 19.6435 13.5769 18.495L10.8882 16.8871C10.3961 16.5969 9.6039 16.5969 9.11177 16.8871L6.41105 18.4829C4.47854 19.6314 3.31424 18.773 3.81837 16.5728L4.45454 13.7801C4.57457 13.2602 4.35851 12.5228 3.98641 12.1359L1.76583 9.89937C0.445478 8.56953 0.877592 7.2276 2.71408 6.92536L5.58283 6.44178C6.06296 6.35715 6.63911 5.93402 6.85517 5.4988L8.43959 2.30718C9.29181 0.566294 10.7082 0.566294 11.5604 2.29509Z" stroke="#999057"/>
</svg>
