<svg width="12" height="13" viewBox="0 0 12 13" fill="none" xmlns="http://www.w3.org/2000/svg">
<path d="M7.04027 1.36193L8.09655 3.48968C8.24059 3.77982 8.62469 4.06997 8.94478 4.11833L10.8573 4.44072C12.0816 4.65027 12.3697 5.53683 11.4894 6.42339L10.0011 7.93054C9.75299 8.18039 9.60895 8.67203 9.68897 9.02666L10.1131 10.8884C10.4492 12.3553 9.67297 12.9275 8.38463 12.1619L6.59216 11.0899C6.26407 10.8965 5.73593 10.8965 5.40784 11.0899L3.60737 12.1538C2.31903 12.9195 1.54282 12.3472 1.87891 10.8804L2.30302 9.0186C2.38305 8.67203 2.23901 8.18039 1.99094 7.92248L0.510551 6.43145C-0.369681 5.54489 -0.0816053 4.65027 1.14272 4.44877L3.05522 4.12639C3.37531 4.06997 3.75941 3.78788 3.90345 3.49774L4.95972 1.36999C5.52787 0.209398 6.47212 0.209398 7.04027 1.36193Z" fill="#ADA46F"/>
</svg>
